<svg width="157" height="92" viewBox="0 0 157 92" fill="none" xmlns="http://www.w3.org/2000/svg">
<path d="M5 82H15" stroke="#617C58" stroke-width="1.5" stroke-linecap="round" stroke-linejoin="round"/>
<path d="M10 87V77" stroke="#617C58" stroke-width="1.5" stroke-linecap="round" stroke-linejoin="round"/>
<path d="M31.83 88L30.885 85.165H26.97L26.055 88H24.33L27.9 77.53H30.03L33.6 88H31.83ZM28.965 79.09H28.89L27.375 83.71H30.465L28.965 79.09ZM40.0066 86.71H39.9316C39.7616 87.17 39.4816 87.53 39.0916 87.79C38.7116 88.05 38.2616 88.18 37.7416 88.18C36.7516 88.18 35.9866 87.825 35.4466 87.115C34.9066 86.395 34.6366 85.39 34.6366 84.1C34.6366 82.81 34.9066 81.81 35.4466 81.1C35.9866 80.38 36.7516 80.02 37.7416 80.02C38.2616 80.02 38.7116 80.15 39.0916 80.41C39.4816 80.66 39.7616 81.02 39.9316 81.49H40.0066V76.9H41.6416V88H40.0066V86.71ZM38.2366 86.77C38.7366 86.77 39.1566 86.65 39.4966 86.41C39.8366 86.16 40.0066 85.835 40.0066 85.435V82.765C40.0066 82.365 39.8366 82.045 39.4966 81.805C39.1566 81.555 38.7366 81.43 38.2366 81.43C37.6666 81.43 37.2116 81.615 36.8716 81.985C36.5316 82.345 36.3616 82.825 36.3616 83.425V84.775C36.3616 85.375 36.5316 85.86 36.8716 86.23C37.2116 86.59 37.6666 86.77 38.2366 86.77ZM48.8836 86.71H48.8086C48.6386 87.17 48.3586 87.53 47.9686 87.79C47.5886 88.05 47.1386 88.18 46.6186 88.18C45.6286 88.18 44.8636 87.825 44.3236 87.115C43.7836 86.395 43.5136 85.39 43.5136 84.1C43.5136 82.81 43.7836 81.81 44.3236 81.1C44.8636 80.38 45.6286 80.02 46.6186 80.02C47.1386 80.02 47.5886 80.15 47.9686 80.41C48.3586 80.66 48.6386 81.02 48.8086 81.49H48.8836V76.9H50.5186V88H48.8836V86.71ZM47.1136 86.77C47.6136 86.77 48.0336 86.65 48.3736 86.41C48.7136 86.16 48.8836 85.835 48.8836 85.435V82.765C48.8836 82.365 48.7136 82.045 48.3736 81.805C48.0336 81.555 47.6136 81.43 47.1136 81.43C46.5436 81.43 46.0886 81.615 45.7486 81.985C45.4086 82.345 45.2386 82.825 45.2386 83.425V84.775C45.2386 85.375 45.4086 85.86 45.7486 86.23C46.0886 86.59 46.5436 86.77 47.1136 86.77ZM56.5205 88V77.53H61.0205C61.9905 77.53 62.7405 77.815 63.2705 78.385C63.8005 78.955 64.0655 79.72 64.0655 80.68C64.0655 81.64 63.8005 82.405 63.2705 82.975C62.7405 83.545 61.9905 83.83 61.0205 83.83H58.2155V88H56.5205ZM58.2155 82.345H60.9155C61.3455 82.345 61.6805 82.235 61.9205 82.015C62.1605 81.785 62.2805 81.46 62.2805 81.04V80.32C62.2805 79.9 62.1605 79.58 61.9205 79.36C61.6805 79.13 61.3455 79.015 60.9155 79.015H58.2155V82.345ZM65.6583 88V80.2H67.2933V81.7H67.3683C67.4783 81.3 67.7083 80.95 68.0583 80.65C68.4083 80.35 68.8933 80.2 69.5133 80.2H69.9483V81.775H69.3033C68.6533 81.775 68.1533 81.88 67.8033 82.09C67.4633 82.3 67.2933 82.61 67.2933 83.02V88H65.6583ZM74.3872 88.18C73.8472 88.18 73.3522 88.085 72.9022 87.895C72.4622 87.705 72.0872 87.435 71.7772 87.085C71.4672 86.725 71.2272 86.295 71.0572 85.795C70.8872 85.285 70.8022 84.72 70.8022 84.1C70.8022 83.48 70.8872 82.92 71.0572 82.42C71.2272 81.91 71.4672 81.48 71.7772 81.13C72.0872 80.77 72.4622 80.495 72.9022 80.305C73.3522 80.115 73.8472 80.02 74.3872 80.02C74.9272 80.02 75.4172 80.115 75.8572 80.305C76.3072 80.495 76.6872 80.77 76.9972 81.13C77.3072 81.48 77.5472 81.91 77.7172 82.42C77.8872 82.92 77.9722 83.48 77.9722 84.1C77.9722 84.72 77.8872 85.285 77.7172 85.795C77.5472 86.295 77.3072 86.725 76.9972 87.085C76.6872 87.435 76.3072 87.705 75.8572 87.895C75.4172 88.085 74.9272 88.18 74.3872 88.18ZM74.3872 86.83C74.9472 86.83 75.3972 86.66 75.7372 86.32C76.0772 85.97 76.2472 85.45 76.2472 84.76V83.44C76.2472 82.75 76.0772 82.235 75.7372 81.895C75.3972 81.545 74.9472 81.37 74.3872 81.37C73.8272 81.37 73.3772 81.545 73.0372 81.895C72.6972 82.235 72.5272 82.75 72.5272 83.44V84.76C72.5272 85.45 72.6972 85.97 73.0372 86.32C73.3772 86.66 73.8272 86.83 74.3872 86.83ZM84.699 86.71H84.624C84.454 87.17 84.174 87.53 83.784 87.79C83.404 88.05 82.954 88.18 82.434 88.18C81.444 88.18 80.679 87.825 80.139 87.115C79.599 86.395 79.329 85.39 79.329 84.1C79.329 82.81 79.599 81.81 80.139 81.1C80.679 80.38 81.444 80.02 82.434 80.02C82.954 80.02 83.404 80.15 83.784 80.41C84.174 80.66 84.454 81.02 84.624 81.49H84.699V76.9H86.334V88H84.699V86.71ZM82.929 86.77C83.429 86.77 83.849 86.65 84.189 86.41C84.529 86.16 84.699 85.835 84.699 85.435V82.765C84.699 82.365 84.529 82.045 84.189 81.805C83.849 81.555 83.429 81.43 82.929 81.43C82.359 81.43 81.904 81.615 81.564 81.985C81.224 82.345 81.054 82.825 81.054 83.425V84.775C81.054 85.375 81.224 85.86 81.564 86.23C81.904 86.59 82.359 86.77 82.929 86.77ZM93.396 86.71H93.336C93.266 86.9 93.171 87.085 93.051 87.265C92.941 87.445 92.796 87.605 92.616 87.745C92.446 87.875 92.236 87.98 91.986 88.06C91.746 88.14 91.466 88.18 91.146 88.18C90.336 88.18 89.706 87.92 89.256 87.4C88.816 86.88 88.596 86.135 88.596 85.165V80.2H90.231V84.955C90.231 86.165 90.731 86.77 91.731 86.77C91.941 86.77 92.146 86.745 92.346 86.695C92.546 86.635 92.721 86.55 92.871 86.44C93.031 86.33 93.156 86.19 93.246 86.02C93.346 85.85 93.396 85.65 93.396 85.42V80.2H95.031V88H93.396V86.71ZM100.387 88.18C99.8271 88.18 99.3271 88.085 98.8871 87.895C98.4471 87.705 98.0771 87.435 97.7771 87.085C97.4771 86.725 97.2471 86.295 97.0871 85.795C96.9271 85.285 96.8471 84.72 96.8471 84.1C96.8471 83.48 96.9271 82.92 97.0871 82.42C97.2471 81.91 97.4771 81.48 97.7771 81.13C98.0771 80.77 98.4471 80.495 98.8871 80.305C99.3271 80.115 99.8271 80.02 100.387 80.02C101.167 80.02 101.807 80.195 102.307 80.545C102.807 80.895 103.172 81.36 103.402 81.94L102.052 82.57C101.942 82.21 101.747 81.925 101.467 81.715C101.197 81.495 100.837 81.385 100.387 81.385C99.7871 81.385 99.3321 81.575 99.0221 81.955C98.7221 82.325 98.5721 82.81 98.5721 83.41V84.805C98.5721 85.405 98.7221 85.895 99.0221 86.275C99.3321 86.645 99.7871 86.83 100.387 86.83C100.867 86.83 101.247 86.715 101.527 86.485C101.817 86.245 102.047 85.93 102.217 85.54L103.462 86.2C103.202 86.84 102.812 87.33 102.292 87.67C101.772 88.01 101.137 88.18 100.387 88.18ZM107.179 88C106.609 88 106.179 87.855 105.889 87.565C105.599 87.265 105.454 86.845 105.454 86.305V81.535H104.239V80.2H104.899C105.169 80.2 105.354 80.14 105.454 80.02C105.564 79.9 105.619 79.705 105.619 79.435V78.07H107.089V80.2H108.724V81.535H107.089V86.665H108.604V88H107.179ZM113.712 88V86.62H115.137V78.91H113.712V77.53H118.272V78.91H116.832V86.62H118.272V88H113.712ZM120.282 88V80.2H121.917V81.49H121.992C122.072 81.29 122.167 81.1 122.277 80.92C122.397 80.74 122.537 80.585 122.697 80.455C122.867 80.315 123.062 80.21 123.282 80.14C123.512 80.06 123.777 80.02 124.077 80.02C124.607 80.02 125.077 80.15 125.487 80.41C125.897 80.67 126.197 81.07 126.387 81.61H126.432C126.572 81.17 126.842 80.795 127.242 80.485C127.642 80.175 128.157 80.02 128.787 80.02C129.567 80.02 130.172 80.285 130.602 80.815C131.032 81.335 131.247 82.08 131.247 83.05V88H129.612V83.245C129.612 82.645 129.497 82.195 129.267 81.895C129.037 81.585 128.672 81.43 128.172 81.43C127.962 81.43 127.762 81.46 127.572 81.52C127.382 81.57 127.212 81.65 127.062 81.76C126.922 81.87 126.807 82.01 126.717 82.18C126.627 82.35 126.582 82.545 126.582 82.765V88H124.947V83.245C124.947 82.035 124.472 81.43 123.522 81.43C123.322 81.43 123.122 81.46 122.922 81.52C122.732 81.57 122.562 81.65 122.412 81.76C122.262 81.87 122.142 82.01 122.052 82.18C121.962 82.35 121.917 82.545 121.917 82.765V88H120.282ZM139.225 88C138.795 88 138.465 87.88 138.235 87.64C138.005 87.39 137.865 87.075 137.815 86.695H137.74C137.59 87.185 137.315 87.555 136.915 87.805C136.515 88.055 136.03 88.18 135.46 88.18C134.65 88.18 134.025 87.97 133.585 87.55C133.155 87.13 132.94 86.565 132.94 85.855C132.94 85.075 133.22 84.49 133.78 84.1C134.35 83.71 135.18 83.515 136.27 83.515H137.68V82.855C137.68 82.375 137.55 82.005 137.29 81.745C137.03 81.485 136.625 81.355 136.075 81.355C135.615 81.355 135.24 81.455 134.95 81.655C134.66 81.855 134.415 82.11 134.215 82.42L133.24 81.535C133.5 81.095 133.865 80.735 134.335 80.455C134.805 80.165 135.42 80.02 136.18 80.02C137.19 80.02 137.965 80.255 138.505 80.725C139.045 81.195 139.315 81.87 139.315 82.75V86.665H140.14V88H139.225ZM135.925 86.935C136.435 86.935 136.855 86.825 137.185 86.605C137.515 86.375 137.68 86.07 137.68 85.69V84.565H136.3C135.17 84.565 134.605 84.915 134.605 85.615V85.885C134.605 86.235 134.72 86.5 134.95 86.68C135.19 86.85 135.515 86.935 135.925 86.935ZM148.582 88.735C148.582 89.545 148.272 90.155 147.652 90.565C147.032 90.975 146.022 91.18 144.622 91.18C143.982 91.18 143.437 91.135 142.987 91.045C142.547 90.965 142.182 90.845 141.892 90.685C141.612 90.525 141.407 90.33 141.277 90.1C141.147 89.87 141.082 89.605 141.082 89.305C141.082 88.875 141.197 88.54 141.427 88.3C141.667 88.06 141.997 87.895 142.417 87.805V87.64C141.827 87.45 141.532 87.05 141.532 86.44C141.532 86.04 141.667 85.735 141.937 85.525C142.207 85.305 142.532 85.15 142.912 85.06V85C142.452 84.78 142.097 84.475 141.847 84.085C141.607 83.685 141.487 83.22 141.487 82.69C141.487 81.89 141.752 81.245 142.282 80.755C142.822 80.265 143.592 80.02 144.592 80.02C145.142 80.02 145.612 80.1 146.002 80.26V80.05C146.002 79.7 146.082 79.43 146.242 79.24C146.412 79.04 146.672 78.94 147.022 78.94H148.222V80.26H146.632V80.575C146.982 80.805 147.252 81.105 147.442 81.475C147.632 81.835 147.727 82.24 147.727 82.69C147.727 83.48 147.457 84.12 146.917 84.61C146.377 85.09 145.607 85.33 144.607 85.33C144.227 85.33 143.887 85.29 143.587 85.21C143.387 85.28 143.212 85.38 143.062 85.51C142.912 85.63 142.837 85.79 142.837 85.99C142.837 86.2 142.932 86.35 143.122 86.44C143.312 86.53 143.582 86.575 143.932 86.575H145.852C146.812 86.575 147.507 86.77 147.937 87.16C148.367 87.54 148.582 88.065 148.582 88.735ZM147.052 88.915C147.052 88.645 146.947 88.43 146.737 88.27C146.537 88.11 146.167 88.03 145.627 88.03H142.987C142.627 88.24 142.447 88.54 142.447 88.93C142.447 89.25 142.572 89.505 142.822 89.695C143.082 89.895 143.517 89.995 144.127 89.995H145.147C146.417 89.995 147.052 89.635 147.052 88.915ZM144.607 84.145C145.087 84.145 145.457 84.04 145.717 83.83C145.987 83.61 146.122 83.275 146.122 82.825V82.525C146.122 82.075 145.987 81.745 145.717 81.535C145.457 81.315 145.087 81.205 144.607 81.205C144.127 81.205 143.752 81.315 143.482 81.535C143.222 81.745 143.092 82.075 143.092 82.525V82.825C143.092 83.275 143.222 83.61 143.482 83.83C143.752 84.04 144.127 84.145 144.607 84.145ZM152.771 88.18C152.211 88.18 151.711 88.085 151.271 87.895C150.831 87.705 150.456 87.435 150.146 87.085C149.836 86.725 149.596 86.295 149.426 85.795C149.266 85.285 149.186 84.72 149.186 84.1C149.186 83.48 149.266 82.92 149.426 82.42C149.596 81.91 149.836 81.48 150.146 81.13C150.456 80.77 150.831 80.495 151.271 80.305C151.711 80.115 152.211 80.02 152.771 80.02C153.341 80.02 153.841 80.12 154.271 80.32C154.711 80.52 155.076 80.8 155.366 81.16C155.656 81.51 155.871 81.92 156.011 82.39C156.161 82.86 156.236 83.365 156.236 83.905V84.52H150.881V84.775C150.881 85.375 151.056 85.87 151.406 86.26C151.766 86.64 152.276 86.83 152.936 86.83C153.416 86.83 153.821 86.725 154.151 86.515C154.481 86.305 154.761 86.02 154.991 85.66L155.951 86.605C155.661 87.085 155.241 87.47 154.691 87.76C154.141 88.04 153.501 88.18 152.771 88.18ZM152.771 81.295C152.491 81.295 152.231 81.345 151.991 81.445C151.761 81.545 151.561 81.685 151.391 81.865C151.231 82.045 151.106 82.26 151.016 82.51C150.926 82.76 150.881 83.035 150.881 83.335V83.44H154.511V83.29C154.511 82.69 154.356 82.21 154.046 81.85C153.736 81.48 153.311 81.295 152.771 81.295Z" fill="#617C58"/>
<path d="M90.243 48H29.0931C27.2753 48 26.4001 45.7713 27.7322 44.5344L61.0778 13.5706C64.2285 10.645 69.2474 11.2247 71.6481 14.7915L91.9022 44.8832C92.7964 46.2118 91.8444 48 90.243 48Z" fill="#617C58" fill-opacity="0.4"/>
<path d="M130.243 48H55.0931C53.2753 48 52.4001 45.7713 53.7322 44.5344L95.6932 5.57057C98.8439 2.64495 103.863 3.22465 106.264 6.79148L131.902 44.8832C132.796 46.2118 131.844 48 130.243 48Z" fill="#617C58" fill-opacity="0.8"/>
<circle cx="80" cy="4" r="4" fill="#617C58" fill-opacity="0.8"/>
</svg>
